<svg xmlns="http://www.w3.org/2000/svg" viewBox="0 0 1480 360" preserveAspectRatio="none">
  <defs>
    <!-- 오른쪽 위에서 들어오는 빛을 아주 약하게 반영한 농도 차이 -->
    <linearGradient id="farLight" x1="0" y1="1" x2="1" y2="0">
      <stop offset="0" stop-color="#fff" stop-opacity=".72"/>
      <stop offset=".58" stop-color="#fff" stop-opacity=".88"/>
      <stop offset="1" stop-color="#fff"/>
    </linearGradient>
    <linearGradient id="midLight" x1="0" y1="1" x2="1" y2="0">
      <stop offset="0" stop-color="#fff" stop-opacity=".82"/>
      <stop offset=".6" stop-color="#fff" stop-opacity=".94"/>
      <stop offset="1" stop-color="#fff"/>
    </linearGradient>
    <linearGradient id="frontLight" x1="0" y1="1" x2="1" y2="0">
      <stop offset="0" stop-color="#fff" stop-opacity=".9"/>
      <stop offset=".64" stop-color="#fff" stop-opacity=".97"/>
      <stop offset="1" stop-color="#fff"/>
    </linearGradient>

    <!-- 기존 전경 건물 윤곽은 그대로 두고 창문 부분만 미세하게 투과 -->
    <mask id="frontBuildings" x="0" y="0" width="1480" height="360" maskUnits="userSpaceOnUse" style="mask-type:luminance">
      <g fill="#fff">
        <rect x="106" y="298" width="36" height="62"/>
        <rect x="174" y="266" width="42" height="94"/>
        <rect x="250" y="236" width="32" height="124"/>
        <rect x="314" y="250" width="50" height="110"/>
        <rect x="400" y="206" width="36" height="154"/>
        <rect x="468" y="224" width="46" height="136"/>
        <rect x="548" y="178" width="38" height="182"/>
        <rect x="620" y="216" width="44" height="144"/>
        <rect x="716" y="76" width="48" height="284"/>
        <rect x="804" y="188" width="36" height="172"/>
        <rect x="872" y="158" width="50" height="202"/>
        <rect x="958" y="214" width="38" height="146"/>
        <rect x="1028" y="198" width="52" height="162"/>
        <rect x="1116" y="246" width="34" height="114"/>
        <rect x="1182" y="274" width="42" height="86"/>
        <rect x="1256" y="290" width="34" height="70"/>
      </g>
      <g fill="#050b18" opacity=".68">
        <path d="M181.5 278h5v4h-5zm11 0h5v4h-5zm11 0h5v4h-5zm-22 13h5v4h-5zm11 0h5v4h-5zm11 0h5v4h-5zm-22 13h5v4h-5zm11 0h5v4h-5zm11 0h5v4h-5z"/>
        <path d="M410 220h5v4h-5zm11 0h5v4h-5zm-11 14h5v4h-5zm11 0h5v4h-5zm-11 14h5v4h-5zm11 0h5v4h-5zm-11 14h5v4h-5zm11 0h5v4h-5z"/>
        <path d="M558 194h5v4h-5zm13 0h5v4h-5zm-13 15h5v4h-5zm13 0h5v4h-5zm-13 15h5v4h-5zm13 0h5v4h-5zm-13 15h5v4h-5zm13 0h5v4h-5z"/>
        <path d="M724.5 96h5v4h-5zm13 0h5v4h-5zm13 0h5v4h-5zm-26 16h5v4h-5zm13 0h5v4h-5zm13 0h5v4h-5zm-26 16h5v4h-5zm13 0h5v4h-5zm13 0h5v4h-5zm-26 16h5v4h-5zm13 0h5v4h-5zm13 0h5v4h-5z"/>
        <path d="M881.5 176h5v4h-5zm13 0h5v4h-5zm13 0h5v4h-5zm-26 16h5v4h-5zm13 0h5v4h-5zm13 0h5v4h-5zm-26 16h5v4h-5zm13 0h5v4h-5zm13 0h5v4h-5z"/>
        <path d="M1038.5 216h5v4h-5zm13 0h5v4h-5zm13 0h5v4h-5zm-26 15h5v4h-5zm13 0h5v4h-5zm13 0h5v4h-5zm-26 15h5v4h-5zm13 0h5v4h-5zm13 0h5v4h-5z"/>
        <path d="M1124.5 260h5v4h-5zm12 0h5v4h-5zm-12 14h5v4h-5zm12 0h5v4h-5zm-12 14h5v4h-5zm12 0h5v4h-5z"/>
      </g>
    </mask>
  </defs>

  <!-- 기존 후경 배치 -->
  <g fill="url(#farLight)" opacity=".2">
    <rect x="58" y="306" width="32" height="54"/>
    <rect x="112" y="278" width="38" height="82"/>
    <rect x="178" y="252" width="28" height="108"/>
    <rect x="232" y="274" width="46" height="86"/>
    <rect x="306" y="218" width="30" height="142"/>
    <rect x="366" y="236" width="40" height="124"/>
    <rect x="438" y="184" width="32" height="176"/>
    <rect x="500" y="204" width="38" height="156"/>
    <rect x="570" y="144" width="34" height="216"/>
    <rect x="632" y="166" width="42" height="194"/>
    <rect x="814" y="198" width="32" height="162"/>
    <rect x="874" y="222" width="46" height="138"/>
    <rect x="950" y="262" width="30" height="98"/>
    <rect x="1010" y="244" width="42" height="116"/>
    <rect x="1084" y="230" width="30" height="130"/>
    <rect x="1146" y="196" width="36" height="164"/>
    <rect x="1212" y="274" width="44" height="86"/>
    <rect x="1288" y="298" width="36" height="62"/>
  </g>

  <!-- 기존 중경 배치 -->
  <g fill="url(#midLight)" opacity=".48">
    <rect x="82" y="292" width="38" height="68"/>
    <rect x="148" y="258" width="44" height="102"/>
    <rect x="224" y="226" width="30" height="134"/>
    <rect x="286" y="242" width="50" height="118"/>
    <rect x="370" y="194" width="34" height="166"/>
    <rect x="434" y="214" width="46" height="146"/>
    <rect x="512" y="168" width="34" height="192"/>
    <rect x="578" y="190" width="40" height="170"/>
    <rect x="648" y="132" width="36" height="228"/>
    <rect x="796" y="178" width="44" height="182"/>
    <rect x="872" y="206" width="34" height="154"/>
    <rect x="936" y="188" width="48" height="172"/>
    <rect x="1018" y="232" width="32" height="128"/>
    <rect x="1082" y="216" width="42" height="144"/>
    <rect x="1156" y="278" width="34" height="82"/>
    <rect x="1220" y="246" width="44" height="114"/>
    <rect x="1296" y="282" width="34" height="78"/>
  </g>

  <!-- 기존 전경 배치 + 은은한 창문 -->
  <rect width="1480" height="360" fill="url(#frontLight)" opacity=".88" mask="url(#frontBuildings)"/>

  <!-- 기존의 가는 건물 배치 -->
  <g fill="url(#midLight)" opacity=".62">
    <rect x="92" y="272" width="24" height="88"/>
    <rect x="218" y="286" width="22" height="74"/>
    <rect x="286" y="210" width="24" height="150"/>
    <rect x="374" y="274" width="20" height="86"/>
    <rect x="442" y="246" width="22" height="114"/>
    <rect x="520" y="190" width="24" height="170"/>
    <rect x="590" y="252" width="22" height="108"/>
    <rect x="680" y="196" width="24" height="164"/>
    <rect x="776" y="224" width="22" height="136"/>
    <rect x="846" y="246" width="22" height="114"/>
    <rect x="928" y="206" width="24" height="154"/>
    <rect x="998" y="254" width="22" height="106"/>
    <rect x="1086" y="184" width="24" height="176"/>
    <rect x="1156" y="226" width="22" height="134"/>
    <rect x="1228" y="202" width="24" height="158"/>
    <rect x="1296" y="244" width="22" height="116"/>
    <rect x="1338" y="282" width="26" height="78"/>
    <rect x="1380" y="304" width="38" height="56"/>
  </g>

  <!-- 햇빛을 받는 면의 아주 얇은 하이라이트 -->
  <g fill="#fff" opacity=".14">
    <rect x="212" y="266" width="4" height="94"/>
    <rect x="278" y="236" width="4" height="124"/>
    <rect x="432" y="206" width="4" height="154"/>
    <rect x="510" y="224" width="4" height="136"/>
    <rect x="582" y="178" width="4" height="182"/>
    <rect x="660" y="216" width="4" height="144"/>
    <rect x="760" y="76" width="4" height="284"/>
    <rect x="836" y="188" width="4" height="172"/>
    <rect x="918" y="158" width="4" height="202"/>
    <rect x="1076" y="198" width="4" height="162"/>
    <rect x="1146" y="246" width="4" height="114"/>
    <rect x="1220" y="274" width="4" height="86"/>
  </g>

  <!-- 기존 옥상 구조와 중앙 정렬 안테나 -->
  <g fill="url(#frontLight)" opacity=".88">
    <rect x="723" y="62" width="34" height="14"/>
    <rect x="737" y="18" width="6" height="44"/>
    <rect x="555" y="164" width="24" height="14"/>
    <rect x="564" y="138" width="6" height="26"/>
    <rect x="880" y="146" width="34" height="12"/>
    <rect x="894" y="114" width="6" height="32"/>
    <rect x="405" y="194" width="26" height="12"/>
    <rect x="415" y="170" width="6" height="24"/>
    <rect x="1037" y="186" width="34" height="12"/>
    <rect x="1051" y="164" width="6" height="22"/>
  </g>
</svg>
